<?xml version="1.0" standalone="no"?>
<!DOCTYPE svg PUBLIC "-//W3C//DTD SVG 20010904//EN"
 "http://www.w3.org/TR/2001/REC-SVG-20010904/DTD/svg10.dtd">
<svg version="1.0" xmlns="http://www.w3.org/2000/svg"
 width="1024.000000pt" height="1024.000000pt" viewBox="0 0 1024.000000 1024.000000"
 preserveAspectRatio="xMidYMid meet">
<metadata>
Created by potrace 1.14, written by Peter Selinger 2001-2017
</metadata>
<g transform="translate(0.000000,1024.000000) scale(0.100000,-0.100000)"
fill="#000000" stroke="none">
<path d="M0 6854 l0 -3386 33 7 c71 16 155 46 167 60 7 8 24 15 39 15 15 0 31
4 36 8 6 4 37 17 70 27 33 11 75 30 94 42 19 13 39 23 46 23 7 0 18 7 25 15 7
8 21 15 31 15 11 0 19 4 19 8 0 14 61 44 93 46 17 1 33 8 35 14 2 7 12 12 22
12 9 0 23 7 30 14 6 8 31 23 56 32 24 9 44 21 44 25 0 5 9 9 20 9 11 0 20 4
20 8 0 5 18 15 40 22 22 7 40 17 40 22 0 4 10 8 21 8 28 0 189 77 189 90 0 6
9 10 19 10 21 0 84 30 89 43 2 4 11 7 20 7 8 0 40 14 70 31 30 17 60 28 67 25
7 -2 25 9 41 25 15 16 33 28 39 27 20 -5 85 25 85 38 0 7 9 16 20 19 11 3 20
11 20 16 0 5 12 8 28 7 28 -2 92 22 92 34 0 5 6 8 13 8 7 0 39 18 72 40 33 22
68 40 77 40 10 0 23 9 30 20 7 11 21 20 30 20 10 0 18 5 18 10 0 6 17 18 38
28 20 9 41 23 45 30 4 6 14 12 21 12 7 0 21 9 31 20 10 11 25 20 33 20 22 0
72 33 72 47 0 14 47 38 90 47 14 3 30 15 35 28 6 12 21 28 35 35 13 7 30 19
35 27 6 8 26 14 43 14 34 -1 82 34 82 59 0 7 11 18 24 23 13 5 27 14 31 20 4
6 17 15 30 20 13 5 29 21 37 37 7 15 24 33 38 40 14 6 32 24 41 39 8 16 28 35
45 44 26 15 29 23 32 69 3 50 4 53 28 48 22 -4 24 -1 24 39 0 32 4 44 15 44
11 0 15 11 15 40 0 33 3 40 20 40 17 0 20 7 20 40 0 33 -3 40 -20 40 -17 0
-20 7 -20 40 0 36 3 40 25 40 l25 0 0 108 c0 157 -8 212 -31 212 -17 0 -19 9
-19 80 0 62 -3 80 -14 80 -10 0 -16 22 -21 80 -6 69 -10 80 -26 80 -17 0 -19
8 -19 80 0 64 -3 80 -15 80 -11 0 -15 11 -15 37 0 30 -8 45 -39 78 -40 40 -40
40 -47 142 -5 81 -11 106 -25 119 -13 12 -19 31 -19 61 0 32 -4 43 -15 43 -11
0 -15 11 -15 40 0 36 -2 40 -25 40 -25 0 -25 1 -25 80 0 64 -3 80 -15 80 -12
0 -15 16 -16 83 -1 49 -4 72 -8 57 l-7 -24 -17 24 c-14 21 -17 49 -17 182 0
134 -2 158 -15 158 -12 0 -15 13 -15 59 0 32 -3 86 -6 120 -6 50 -10 61 -25
61 -15 0 -19 8 -19 40 0 28 -4 40 -14 40 -10 0 -16 22 -21 80 -6 69 -10 80
-26 80 -15 0 -19 7 -19 40 0 27 -4 40 -14 40 -9 0 -15 18 -19 56 -4 39 -13 64
-28 80 -21 23 -22 29 -16 144 6 103 5 120 -8 120 -11 0 -15 11 -15 40 0 22 -4
40 -10 40 -5 0 -10 -18 -10 -40 0 -22 -4 -40 -10 -40 -5 0 -10 18 -10 40 0 22
-4 40 -10 40 -5 0 -10 22 -10 49 0 39 -5 53 -21 64 -17 13 -20 24 -18 81 1 36
-1 69 -4 73 -4 3 -7 -1 -7 -10 0 -10 -8 -17 -20 -17 -24 0 -25 13 -3 46 11 17
13 28 6 32 -6 4 -14 42 -18 84 -5 51 -12 79 -21 82 -8 3 -14 20 -14 41 0 27
-4 35 -17 35 -17 1 -17 1 0 14 23 17 22 38 -3 54 -15 9 -20 23 -20 52 0 28 -4
40 -14 40 -19 0 -30 133 -21 240 6 70 5 80 -9 80 -14 0 -16 17 -16 120 0 73 4
120 10 120 6 0 10 18 10 40 0 22 -4 40 -10 40 -5 0 -10 18 -10 40 0 22 -4 40
-10 40 -6 0 -10 33 -10 80 0 73 2 80 20 80 16 0 20 7 20 34 0 19 2 40 3 48 2
7 2 10 0 6 -3 -5 -13 -8 -24 -8 -16 0 -19 7 -19 40 l0 40 -980 0 -980 0 0
-3386z m2560 146 c0 -22 -4 -40 -10 -40 -5 0 -10 18 -10 40 0 22 5 40 10 40 6
0 10 -18 10 -40z"/>
<path d="M8200 10200 c0 -22 -4 -40 -10 -40 -5 0 -10 -18 -10 -40 0 -22 -4
-40 -10 -40 -5 0 -10 -18 -10 -40 0 -22 5 -40 10 -40 6 0 10 -33 10 -80 0 -47
-4 -80 -10 -80 -6 0 -10 -39 -10 -96 0 -71 -4 -99 -15 -110 -8 -9 -15 -20 -15
-25 0 -5 7 -9 15 -9 8 0 15 -7 15 -16 0 -8 -7 -22 -15 -30 -17 -18 -20 -34 -5
-34 6 0 10 -18 10 -40 0 -22 -4 -40 -9 -40 -5 0 -12 -72 -16 -160 -7 -148 -9
-160 -26 -160 -17 0 -19 -8 -19 -80 0 -62 -3 -80 -14 -80 -10 0 -16 -22 -21
-80 -6 -68 -10 -80 -25 -80 -15 0 -19 -12 -25 -77 -7 -78 -27 -143 -42 -143
-5 0 -14 5 -19 10 -13 13 -28 -160 -18 -198 5 -17 1 -27 -15 -38 -17 -12 -21
-25 -21 -65 0 -42 -3 -49 -20 -49 -19 0 -20 -7 -20 -98 0 -86 -2 -99 -20 -110
-16 -9 -20 -23 -20 -62 0 -42 -3 -50 -19 -50 -15 0 -20 -9 -23 -40 -3 -37 -2
-40 21 -40 l24 0 -21 -23 c-12 -13 -22 -31 -22 -40 0 -10 -8 -17 -20 -17 -17
0 -20 -7 -20 -43 0 -31 -6 -49 -20 -62 -16 -15 -20 -31 -20 -87 0 -62 -9 -84
-25 -58 -7 12 -55 14 -55 2 0 -4 9 -13 20 -20 16 -10 20 -23 20 -72 0 -53 -2
-60 -20 -60 -18 0 -20 -7 -20 -59 0 -102 -12 -181 -26 -181 -11 0 -14 -19 -14
-80 0 -71 -2 -80 -19 -80 -15 0 -19 -11 -25 -61 -3 -34 -6 -88 -6 -120 0 -46
-3 -59 -15 -59 -11 0 -15 -11 -15 -40 0 -32 -4 -40 -19 -40 -15 0 -19 -11 -25
-61 -3 -34 -6 -88 -6 -120 0 -46 -3 -59 -15 -59 -12 0 -15 -16 -15 -80 0 -44
-4 -80 -9 -80 -5 0 -12 -10 -16 -22 l-7 -23 -8 25 c-7 21 -8 19 -9 -17 -1 -31
-5 -43 -16 -43 -11 0 -15 -11 -15 -40 0 -29 -4 -40 -15 -40 -11 0 -15 -12 -17
-42 l-1 -43 -7 45 c-6 39 -7 33 -8 -37 -2 -66 -5 -83 -17 -83 -12 0 -15 -16
-15 -80 0 -71 -2 -80 -19 -80 -24 0 -31 -65 -31 -301 l0 -179 25 0 c23 0 25
-4 25 -40 0 -29 4 -40 15 -40 11 0 15 -11 15 -40 0 -36 3 -40 24 -40 23 0 25
-4 28 -52 3 -45 7 -53 32 -68 17 -9 37 -28 45 -44 9 -15 27 -32 40 -39 14 -7
32 -25 40 -40 9 -15 27 -34 41 -40 14 -7 31 -25 38 -40 8 -16 20 -31 28 -34 8
-3 14 -14 14 -24 0 -12 7 -19 20 -19 11 0 20 -4 20 -9 0 -14 33 -23 40 -11 4
7 20 -4 41 -27 21 -24 42 -37 53 -35 10 2 24 -5 32 -17 9 -12 21 -21 28 -21 7
0 21 -9 31 -20 10 -11 24 -20 32 -20 7 0 34 -19 58 -41 25 -23 45 -36 45 -30
0 19 32 12 37 -9 3 -12 17 -23 32 -26 41 -8 91 -33 91 -44 0 -5 9 -10 20 -10
11 0 20 -4 20 -9 0 -5 15 -15 33 -22 29 -12 50 -29 134 -106 13 -13 35 -23 48
-23 14 0 25 -4 25 -9 0 -5 9 -12 19 -16 11 -3 34 -16 53 -28 18 -13 54 -32 80
-42 27 -11 48 -24 48 -30 0 -15 50 -35 86 -35 19 0 34 -6 37 -14 6 -15 104
-66 125 -66 7 0 21 -9 32 -20 11 -11 28 -20 38 -20 11 0 27 -9 37 -20 11 -12
31 -20 49 -20 20 0 36 -7 44 -20 7 -11 21 -20 31 -20 10 0 24 -7 31 -15 7 -9
46 -31 85 -49 40 -18 75 -38 79 -45 4 -6 20 -11 37 -11 16 0 38 -9 49 -20 11
-11 27 -20 36 -20 9 0 30 -11 46 -25 16 -14 34 -23 39 -19 5 3 20 -4 34 -14
14 -11 34 -18 44 -15 13 3 30 -5 48 -22 31 -29 63 -45 105 -50 30 -4 88 -35
88 -47 0 -4 15 -8 33 -8 20 0 39 -8 50 -20 9 -11 35 -23 57 -26 22 -4 45 -13
51 -20 6 -8 17 -14 24 -14 7 0 18 -7 26 -16 8 -10 24 -14 46 -12 21 3 33 0 33
-8 0 -14 23 -24 56 -24 l24 0 0 3430 0 3430 -1020 0 -1020 0 0 -40z m-260
-1760 c0 -22 -4 -40 -10 -40 -5 0 -10 18 -10 40 0 22 5 40 10 40 6 0 10 -18
10 -40z m-535 -2270 c3 -5 -1 -10 -10 -10 -9 0 -13 5 -10 10 3 6 8 10 10 10 2
0 7 -4 10 -10z"/>
<path d="M4800 9459 c-276 -17 -525 -61 -605 -107 -42 -25 -43 -63 -5 -211 17
-67 39 -173 50 -235 10 -62 24 -124 30 -138 l12 -25 131 4 c93 3 128 1 117 -6
-28 -20 -272 -61 -384 -65 -72 -3 -91 -7 -99 -21 -14 -25 -21 -213 -12 -328
l7 -97 78 0 c113 0 110 2 104 -88 -3 -43 -9 -196 -14 -342 -7 -198 -13 -276
-25 -308 -47 -129 -124 -237 -188 -263 -68 -27 -218 -164 -306 -279 -80 -104
-178 -251 -200 -300 -10 -22 -21 -37 -24 -33 -4 3 -7 1 -7 -6 0 -7 -13 -41
-29 -76 -36 -77 -65 -174 -83 -275 -19 -107 -19 -3768 0 -3848 6 -29 12 -73
12 -98 0 -106 53 -378 90 -462 11 -24 20 -50 20 -57 0 -6 -37 -24 -82 -39 -46
-16 -90 -33 -98 -40 -31 -25 -290 -126 -323 -126 -12 0 -35 -7 -51 -15 -15 -8
-32 -12 -37 -9 -5 3 -9 1 -9 -5 0 -6 -17 -13 -37 -16 -21 -4 -54 -14 -73 -23
-19 -8 -70 -21 -112 -28 -45 -7 -85 -19 -95 -29 -10 -11 -27 -15 -45 -13 -15
3 -28 2 -28 -2 0 -3 -10 -7 -22 -8 -13 -1 -52 -7 -88 -13 -36 -6 -92 -11 -124
-11 -33 1 -65 -3 -70 -7 -6 -5 -27 -10 -46 -10 -61 -1 -75 -3 -88 -14 -9 -7
-21 -6 -38 4 -23 12 -28 11 -39 -5 -12 -16 -31 -19 -142 -21 -70 -2 -148 2
-172 8 -34 8 -46 7 -49 -1 -2 -7 -8 -12 -14 -12 -6 0 -8 7 -5 15 10 24 -15 30
-34 7 -19 -24 -44 -27 -86 -11 -38 14 -182 18 -186 5 -2 -7 -19 -4 -46 6 -31
12 -49 14 -70 7 -22 -8 -36 -5 -74 17 -26 14 -47 32 -47 40 0 17 3 17 -59 3
-49 -10 -54 -9 -128 27 -71 34 -76 38 -53 45 l25 7 -25 2 c-14 2 -56 2 -93 0
-66 -2 -69 -1 -102 33 -19 20 -35 38 -35 42 0 3 13 5 28 5 32 0 52 16 52 42 0
10 7 18 17 18 9 0 14 3 10 6 -3 4 -30 -6 -59 -20 -30 -15 -54 -22 -56 -16 -2
5 -12 10 -22 10 -10 0 -20 4 -22 9 -1 5 -19 12 -38 15 l-35 7 30 -26 c23 -19
26 -25 13 -25 -10 0 -18 5 -18 10 0 15 -57 12 -63 -2 -4 -10 -6 -10 -6 -1 -1
7 -19 17 -41 23 -47 13 -56 35 -10 25 19 -4 30 -3 30 4 0 6 -9 11 -19 11 -37
0 -31 19 6 23 l38 3 -32 8 c-18 5 -33 13 -33 18 0 6 -7 7 -15 4 -9 -3 -18 1
-21 9 -4 9 -19 15 -35 15 -16 0 -29 5 -29 11 0 8 -15 10 -49 5 -29 -4 -52 -2
-56 3 -7 13 58 25 95 18 16 -4 32 -2 35 3 10 16 -53 21 -112 10 -32 -6 -63
-12 -70 -14 -7 -1 -16 -5 -19 -9 -10 -10 -44 -9 -44 2 0 5 10 12 22 16 20 6
20 8 5 12 -9 2 -17 13 -17 24 0 10 -5 19 -11 19 -7 0 -9 -10 -7 -25 3 -14 1
-28 -3 -31 -14 -8 -11 -52 4 -57 9 -4 9 -6 0 -6 -10 -1 -13 -184 -13 -881 l0
-880 5120 0 5120 0 0 1042 0 1042 -40 -39 c-21 -21 -37 -42 -34 -47 3 -4 -5
-8 -18 -8 -13 0 -32 -7 -42 -15 -12 -9 -22 -11 -26 -5 -9 15 -103 15 -128 -1
-15 -10 -20 -20 -16 -34 4 -11 11 -21 15 -23 22 -9 5 -22 -27 -22 -28 0 -35 3
-30 15 6 17 -9 21 -19 5 -5 -7 -11 -8 -18 -1 -15 12 -47 -10 -47 -31 0 -22
-25 -40 -52 -37 -13 1 -31 -1 -40 -5 -28 -13 -43 -2 -24 16 19 20 22 35 3 19
-8 -6 -16 -8 -19 -5 -3 3 -8 -7 -12 -21 -4 -14 -13 -25 -21 -25 -9 0 -12 -6
-8 -16 5 -14 1 -16 -28 -11 -46 8 -155 -5 -149 -18 3 -5 10 -8 15 -6 17 7 90
0 99 -9 4 -4 -16 -7 -45 -7 -54 2 -84 -17 -31 -19 44 -3 87 -23 75 -35 -8 -8
-21 -8 -46 0 -34 12 -67 7 -67 -10 0 -5 7 -9 16 -9 26 0 54 -20 48 -35 -3 -7
-18 -17 -34 -20 -15 -3 -32 -16 -38 -28 -8 -17 -11 -18 -11 -5 -1 23 -35 32
-60 16 -16 -10 -21 -23 -21 -54 0 -38 -2 -41 -24 -37 -13 3 -29 17 -36 31
l-12 27 -9 -22 c-5 -13 -12 -23 -18 -23 -5 0 -11 -8 -14 -19 -3 -14 -18 -20
-62 -26 -35 -4 -66 -14 -78 -26 -12 -10 -27 -19 -34 -19 -7 0 -13 -6 -13 -14
0 -7 -15 -19 -32 -26 -18 -6 -41 -16 -50 -21 -14 -7 -18 -5 -18 10 0 10 -7 22
-16 25 -21 8 -55 -21 -47 -40 3 -9 -2 -14 -15 -14 -11 0 -32 -6 -47 -14 -25
-13 -32 -13 -56 0 -34 17 -52 18 -47 2 3 -7 0 -17 -6 -23 -13 -12 -244 -13
-270 -1 -12 6 -26 5 -38 -3 -21 -13 -281 -7 -365 8 -25 5 -64 8 -87 6 -120 -8
-206 -9 -206 -3 0 5 -9 8 -19 8 -11 0 -22 4 -25 8 -2 4 -35 9 -72 10 -42 1
-71 6 -75 14 -5 7 -28 13 -51 14 -24 1 -62 9 -86 18 -24 9 -60 18 -80 21 -20
3 -57 19 -82 36 -25 18 -58 36 -75 40 -100 27 -128 37 -144 51 -10 9 -29 19
-41 23 -12 4 -50 22 -84 41 -33 19 -72 40 -86 45 -14 6 -33 15 -42 20 -10 5
-25 9 -33 9 -8 0 -15 6 -15 13 0 12 -74 50 -122 62 -16 4 -28 10 -28 13 0 9
39 110 60 157 11 23 21 73 24 120 11 189 28 340 38 352 5 7 8 20 4 28 -3 8 -1
15 4 15 5 0 11 -8 14 -17 3 -10 3 419 1 952 -15 2853 -14 2846 -50 2972 -35
122 -118 296 -228 473 -72 117 -205 246 -396 384 -137 99 -194 202 -211 378
-5 53 -10 207 -10 342 -1 135 -5 248 -10 251 -4 3 -6 15 -3 26 6 21 10 21 93
16 l87 -7 7 47 c10 72 7 235 -5 320 -13 85 -26 118 -21 49 l4 -44 -52 -7 c-64
-9 -167 2 -200 20 -14 8 -21 14 -16 15 6 0 1 7 -10 15 -17 13 -8 14 88 15 59
0 119 -5 133 -10 23 -9 26 -8 23 7 -3 15 -22 20 -108 30 -194 22 -283 38 -288
51 -3 9 21 12 96 12 l100 0 12 73 c7 39 27 142 46 227 48 219 54 258 48 275
-18 46 -190 101 -401 130 -137 19 -476 26 -673 14z m-474 -805 c41 -10 27 -31
-33 -47 -62 -17 -109 -22 -186 -19 -46 2 -47 3 -41 30 4 15 12 30 17 34 13 8
210 10 243 2z m12 -141 c-21 -2 -57 -2 -80 0 -24 2 -7 4 37 4 44 0 63 -2 43
-4z m1435 0 c-13 -2 -33 -2 -45 0 -13 2 -3 4 22 4 25 0 35 -2 23 -4z m-1258
-52 c-3 -11 -1 -22 4 -25 5 -4 8 -19 6 -35 -4 -31 6 -45 40 -55 11 -3 -5 -3
-35 -1 -30 3 -74 5 -98 5 -25 0 -41 4 -37 9 3 6 -11 13 -32 16 -48 8 -97 23
-152 47 -35 15 -41 21 -31 33 16 20 37 22 198 24 137 1 143 0 137 -18z m1368
-3 c15 -15 13 -18 -32 -47 -26 -17 -70 -38 -97 -45 -50 -15 -269 -27 -256 -14
4 3 21 8 37 10 27 3 30 7 31 39 0 19 4 41 8 47 4 8 0 12 -11 13 -10 1 -5 5 12
10 17 4 89 7 161 6 106 -2 134 -6 147 -19z m-1274 -137 c15 -10 -24 -23 -104
-36 l-40 -6 25 20 c35 28 92 39 119 22z m951 -1 c0 -5 -19 -10 -42 -9 -33 0
-38 2 -23 9 28 12 65 12 65 0z m-1323 -36 c-3 -3 -12 -4 -19 -1 -8 3 -5 6 6 6
11 1 17 -2 13 -5z m1656 -41 c-7 -2 -19 -2 -25 0 -7 3 -2 5 12 5 14 0 19 -2
13 -5z m-368 -553 c-4 -6 3 -37 14 -70 12 -33 21 -68 21 -78 0 -58 87 -179
200 -277 l34 -30 -28 38 c-38 52 -86 158 -92 203 -4 35 -2 32 18 -21 49 -124
114 -215 208 -285 91 -69 163 -136 211 -197 27 -35 47 -63 44 -63 -7 0 -219
192 -223 202 -2 4 -8 8 -14 8 -5 0 23 -35 62 -79 86 -94 108 -127 143 -210 32
-74 27 -87 -29 -73 -57 15 -197 24 -238 16 -25 -4 -41 -15 -50 -32 -13 -24
-11 -28 28 -67 22 -22 59 -54 81 -70 62 -45 132 -124 162 -184 25 -50 28 -64
27 -160 0 -100 -2 -110 -36 -181 -47 -99 -78 -143 -165 -235 -40 -41 -73 -82
-73 -91 0 -16 28 -64 44 -75 20 -15 -37 -28 -204 -48 -261 -32 -338 -48 -397
-82 -42 -23 -65 -29 -113 -29 -58 0 -190 34 -190 48 0 17 41 72 54 72 7 0 24
8 36 18 19 16 21 24 15 60 -4 25 -12 42 -20 42 -8 0 -18 6 -22 13 -4 6 -26 26
-48 42 -57 42 -121 112 -144 155 -55 106 -93 309 -95 505 -1 128 3 164 23 242
32 127 20 163 -69 196 -76 28 -198 17 -338 -32 -87 -30 -176 -44 -245 -39 -49
4 -71 1 -98 -13 -18 -10 -44 -22 -56 -28 -12 -6 -41 -27 -64 -48 -27 -24 -44
-33 -46 -26 -4 10 -8 9 -20 -2 -8 -8 -20 -15 -26 -14 -9 0 -8 2 1 6 6 2 12 11
12 19 0 19 84 149 123 191 17 18 27 36 23 40 -4 4 -11 1 -16 -7 -6 -9 -10 -10
-10 -3 0 6 5 15 11 18 5 4 29 33 52 64 23 31 85 97 137 145 52 49 110 110 128
137 19 27 38 47 43 44 10 -7 -29 -73 -72 -123 -30 -33 -36 -52 -20 -52 16 0
282 277 296 308 10 21 10 21 56 -8 26 -15 65 -33 88 -39 22 -6 60 -16 84 -22
23 -7 110 -15 192 -19 119 -5 153 -4 166 7 18 15 39 17 39 3 0 -21 30 -9 36
15 7 29 20 32 45 9 17 -15 19 -14 34 21 15 37 16 37 34 20 21 -18 41 -13 41
10 0 15 22 25 54 25 15 0 25 9 33 31 7 17 16 28 21 25 12 -7 22 17 22 50 0 13
5 24 11 24 6 0 20 11 31 25 19 24 35 35 23 15z m442 -494 c24 -27 41 -51 38
-54 -3 -3 -6 -3 -8 -1 -2 2 -36 44 -75 92 -40 49 -72 93 -72 98 0 6 16 -11 37
-38 20 -26 56 -70 80 -97z m67 26 c3 -5 -1 -9 -9 -9 -8 0 -12 4 -9 9 3 4 7 8
9 8 2 0 6 -4 9 -8z m-2045 -19 c-17 -20 -146 -123 -154 -123 -13 0 8 21 81 79
76 61 98 75 73 44z m49 -50 c-25 -31 -74 -82 -108 -113 -98 -85 -62 -39 105
135 22 23 42 40 44 39 2 -2 -16 -30 -41 -61z m2048 25 l29 -33 -32 29 c-31 28
-38 36 -30 36 2 0 16 -15 33 -32z m-1571 -2133 c56 -17 73 -36 50 -55 -28 -24
-115 15 -115 50 0 24 -1 24 65 5z m-398 -393 c15 -10 43 -75 43 -101 0 -30
-37 -15 -66 28 -39 58 -25 104 23 73z m622 -51 c30 -16 28 -55 -4 -69 -51 -24
-145 -11 -182 25 -19 17 -16 30 10 48 25 18 139 16 176 -4z m-505 -366 c55 -8
133 -15 175 -15 42 0 166 -7 276 -15 309 -24 584 -19 945 16 57 6 132 7 165 4
33 -3 100 -7 149 -9 58 -1 91 -7 94 -14 2 -7 11 -12 21 -12 22 0 71 -23 71
-33 0 -4 9 -26 19 -50 11 -23 23 -53 27 -67 11 -37 52 -76 97 -91 31 -10 41
-11 45 -1 4 14 37 -1 62 -28 8 -9 23 -19 32 -23 20 -7 25 -36 32 -168 3 -78 9
-106 30 -147 26 -51 34 -102 17 -102 -16 0 -43 32 -58 68 -10 24 -18 31 -25
24 -7 -7 -5 -44 6 -119 9 -59 16 -142 16 -183 0 -103 17 -227 40 -301 31 -95
30 -97 -38 -89 -116 14 -359 131 -490 237 -126 102 -261 224 -419 379 -110
108 -174 164 -188 164 -12 0 -59 -11 -106 -25 -46 -14 -149 -41 -229 -59 -131
-31 -212 -46 -615 -117 -66 -12 -192 -35 -280 -52 -96 -18 -214 -33 -295 -37
-74 -4 -145 -11 -157 -15 -23 -7 -23 -6 -23 71 0 44 -7 113 -16 154 -14 65
-14 94 -4 214 6 76 16 149 20 162 12 30 34 31 47 2 10 -22 11 -22 26 14 18 44
158 188 182 188 8 0 38 16 67 35 28 19 62 38 77 41 14 3 31 7 36 9 22 7 75 4
169 -10z m2266 -149 c-1 -19 -2 -19 -15 4 -20 35 -19 62 0 36 8 -11 15 -29 15
-40z m-3133 -828 c-3 -8 -6 -5 -6 6 -1 11 2 17 5 13 3 -3 4 -12 1 -19z m0
-255 c-3 -10 -5 -4 -5 12 0 17 2 24 5 18 2 -7 2 -21 0 -30z m487 -168 c46 -94
56 -123 33 -95 -7 8 -24 23 -38 32 -31 20 -58 73 -54 108 1 14 3 31 4 38 0 6
3 12 5 12 2 0 25 -43 50 -95z m-180 -54 c-9 -34 -21 -64 -26 -67 -11 -7 -38
58 -37 88 2 22 2 22 6 1 4 -20 6 -20 36 11 18 18 33 32 35 30 2 -1 -4 -30 -14
-63z m2821 -118 c-5 -27 -10 -32 -33 -31 -29 1 -216 -36 -257 -52 -36 -14 -31
1 12 30 45 30 232 189 253 215 14 17 16 12 23 -56 5 -41 6 -88 2 -106z m-2777
-75 c28 -11 52 -23 52 -28 0 -18 -12 -40 -20 -35 -4 3 -13 -2 -20 -10 -23 -28
5 -94 63 -149 54 -50 51 -53 -28 -22 -40 16 -58 11 -77 -22 -20 -33 -47 -109
-50 -137 -1 -11 -5 16 -8 60 -4 44 -11 114 -15 155 -7 72 -6 76 19 99 30 28
32 44 11 85 -19 36 -19 40 3 31 9 -4 41 -16 70 -27z m2762 -100 c25 -42 25
-59 -8 -193 l-28 -110 -38 70 c-22 39 -44 73 -50 77 -6 4 -38 5 -71 2 l-60 -6
40 21 c72 38 105 77 105 122 0 21 7 28 33 37 50 16 56 14 77 -20z m-2558 -97
c109 -29 114 -32 44 -26 -97 9 -185 56 -220 117 -18 30 -15 29 37 -18 48 -45
67 -54 139 -73z m2388 35 c-13 -17 -108 -51 -117 -43 -3 3 12 11 33 17 22 6
50 17 64 25 32 18 35 18 20 1z m-137 -53 c-7 -2 -19 -2 -25 0 -7 3 -2 5 12 5
14 0 19 -2 13 -5z m62 -113 c-3 -5 -15 -10 -26 -10 -10 0 -19 5 -19 10 0 6 12
10 26 10 14 0 23 -4 19 -10z m-2471 -311 c39 -11 130 -22 201 -26 117 -7 124
-8 70 -14 -33 -4 -111 -7 -173 -8 -113 -1 -113 -1 -107 -23 5 -18 2 -16 -13 7
-10 17 -26 36 -36 44 -22 18 -44 57 -26 46 7 -4 44 -16 84 -26z m2635 5 c-31
-37 -69 -46 -188 -45 -144 3 -187 20 -51 21 59 1 120 8 160 20 86 24 96 25 79
4z m3475 -83 c17 -6 17 -8 4 -14 -21 -7 -59 3 -52 14 6 11 22 11 48 0z m-6004
-118 c49 -23 187 -53 242 -53 34 0 75 8 104 20 46 20 74 21 883 29 460 5 838
7 840 4 3 -2 -4 -10 -15 -17 -18 -14 -18 -15 11 -26 18 -7 62 -10 110 -8 85 5
132 23 196 74 l34 28 -30 -34 c-115 -129 -165 -156 -321 -170 -45 -5 -92 -15
-105 -23 -25 -15 -206 -32 -312 -28 -33 1 -64 -3 -71 -8 -8 -7 -24 -7 -47 -1
-52 15 -109 13 -115 -5 -4 -11 -10 -12 -18 -6 -16 14 -207 13 -223 -1 -9 -7
-13 -7 -13 1 0 14 -77 15 -86 0 -4 -8 -9 -8 -17 0 -16 16 -97 14 -97 -1 0 -10
-3 -9 -9 1 -11 16 -113 19 -119 2 -2 -7 -11 -6 -25 4 -23 16 -117 21 -117 6 0
-6 -12 -3 -27 5 -16 7 -48 14 -73 14 -25 0 -77 7 -115 15 -81 17 -155 19 -155
5 0 -5 -8 -10 -17 -10 -15 0 -15 2 -4 9 10 7 0 11 -35 16 -27 4 -64 11 -82 15
-61 16 -241 161 -273 221 -7 15 5 6 32 -21 24 -25 55 -50 69 -57z m5909 61 c6
4 11 3 11 -3 0 -17 -22 -24 -32 -10 -7 11 -11 11 -15 2 -2 -7 -9 -13 -15 -13
-6 0 -3 9 7 20 13 14 21 17 26 9 4 -6 12 -8 18 -5z m61 6 c0 -5 -7 -7 -15 -4
-8 4 -15 8 -15 10 0 2 7 4 15 4 8 0 15 -4 15 -10z m25 0 c3 -5 1 -10 -4 -10
-6 0 -11 5 -11 10 0 6 2 10 4 10 3 0 8 -4 11 -10z m-175 -24 c0 -11 -19 -15
-25 -6 -3 5 1 10 9 10 9 0 16 -2 16 -4z m-9590 -16 c0 -5 -4 -10 -10 -10 -5 0
-10 5 -10 10 0 6 5 10 10 10 6 0 10 -4 10 -10z m9534 -6 c9 -3 13 -10 10 -15
-9 -14 -41 -10 -48 6 -6 16 10 20 38 9z m-9364 -14 c8 -5 11 -10 5 -10 -5 0
-17 5 -25 10 -8 5 -10 10 -5 10 6 0 17 -5 25 -10z m-97 -7 c-7 -2 -21 -2 -30
0 -10 3 -4 5 12 5 17 0 24 -2 18 -5z m9531 -2 c3 -5 -1 -11 -9 -15 -9 -3 -15
0 -15 9 0 16 16 20 24 6z m120 -25 c-10 -8 -21 -12 -23 -10 -3 2 4 11 15 18
10 8 21 12 23 10 3 -2 -4 -11 -15 -18z m-9739 4 c3 -6 -1 -7 -9 -4 -18 7 -21
14 -7 14 6 0 13 -4 16 -10z m220 0 c4 -6 -12 -9 -42 -9 -47 2 -47 2 -13 9 19
4 38 8 42 9 4 0 10 -3 13 -9z m6245 -9 c0 -13 -29 -35 -37 -28 -7 8 15 37 28
37 5 0 9 -4 9 -9z m3114 -36 c-7 -17 -20 -20 -28 -6 -7 10 3 21 20 21 8 0 11
-6 8 -15z m-94 -35 c0 -5 -4 -10 -10 -10 -5 0 -10 5 -10 10 0 6 5 10 10 10 6
0 10 -4 10 -10z"/>
<path d="M5420 7520 c0 -11 2 -20 4 -20 2 0 6 9 9 20 3 11 1 20 -4 20 -5 0 -9
-9 -9 -20z"/>
<path d="M4049 7033 c-13 -16 -12 -17 4 -4 9 7 17 15 17 17 0 8 -8 3 -21 -13z"/>
<path d="M3993 7001 c-23 -19 -29 -31 -15 -31 4 0 15 12 25 25 21 30 19 31
-10 6z"/>
<path d="M5647 1714 c-3 -3 -3 -13 0 -21 4 -9 -1 -21 -10 -28 -13 -9 9 -15
113 -30 137 -19 263 -16 322 8 26 11 11 12 -114 14 -78 2 -167 8 -196 14 -45
9 -52 13 -47 30 5 16 1 19 -28 19 -18 0 -36 -3 -40 -6z"/>
<path d="M4016 1653 c32 -13 305 -15 689 -4 l220 6 -260 8 c-143 4 -354 7
-469 5 -176 -2 -204 -4 -180 -15z"/>
<path d="M4086 8711 c-4 -5 3 -7 14 -4 23 6 26 13 6 13 -8 0 -17 -4 -20 -9z"/>
<path d="M10064 2049 c-3 -6 -1 -16 5 -22 8 -8 11 -5 11 11 0 24 -5 28 -16 11z"/>
<path d="M10088 1993 c7 -3 16 -2 19 1 4 3 -2 6 -13 5 -11 0 -14 -3 -6 -6z"/>
<path d="M155 1880 c-3 -5 -1 -10 4 -10 6 0 11 5 11 10 0 6 -2 10 -4 10 -3 0
-8 -4 -11 -10z"/>
<path d="M9756 1881 c-4 -7 -5 -15 -2 -18 9 -9 19 4 14 18 -4 11 -6 11 -12 0z"/>
<path d="M366 1771 c-5 -7 3 -11 21 -11 16 0 38 -7 49 -15 10 -8 28 -15 40
-15 11 0 25 -5 32 -12 7 -7 12 -9 12 -4 0 16 -29 36 -67 45 -21 5 -48 13 -59
16 -12 4 -25 2 -28 -4z"/>
<path d="M430 1700 c20 -13 53 -13 45 0 -3 6 -18 10 -33 10 -21 0 -24 -2 -12
-10z"/>
<path d="M560 1683 c-13 -15 -12 -16 4 -10 10 4 22 7 27 7 6 0 7 5 4 10 -9 14
-18 12 -35 -7z"/>
<path d="M400 1664 c0 -14 3 -14 15 -4 8 7 15 14 15 16 0 2 -7 4 -15 4 -8 0
-15 -7 -15 -16z"/>
<path d="M653 1616 c3 -8 1 -17 -6 -20 -7 -2 15 -4 48 -4 33 1 46 3 28 5 -17
2 -37 11 -43 19 -16 18 -34 18 -27 0z"/>
<path d="M786 1605 c-3 -8 -1 -15 4 -15 13 0 22 18 11 24 -5 3 -11 -1 -15 -9z"/>
<path d="M690 1560 c0 -5 7 -10 15 -10 8 0 15 5 15 10 0 6 -7 10 -15 10 -8 0
-15 -4 -15 -10z"/>
<path d="M766 1561 c-6 -10 33 -20 52 -13 7 2 12 8 12 13 0 12 -57 12 -64 0z"/>
</g>
</svg>
